<svg width="74" height="74" xmlns="http://www.w3.org/2000/svg" xmlns:xlink="http://www.w3.org/1999/xlink" xml:space="preserve" overflow="hidden"><defs><clipPath id="clip0"><rect x="888" y="61" width="74" height="74"/></clipPath></defs><g clip-path="url(#clip0)" transform="translate(-888 -61)"><path d="M912.667 108.792C912.667 112.197 909.906 114.958 906.5 114.958 903.094 114.958 900.333 112.197 900.333 108.792 900.333 105.386 903.094 102.625 906.5 102.625 909.906 102.625 912.667 105.386 912.667 108.792Z"/><path d="M949.667 108.792C949.667 112.197 946.906 114.958 943.5 114.958 940.094 114.958 937.333 112.197 937.333 108.792 937.333 105.386 940.094 102.625 943.5 102.625 946.906 102.625 949.667 105.386 949.667 108.792Z"/><path d="M918.062 93.375 918.062 84.125 928.623 84.125C929.471 84.125 930.242 84.4333 930.781 85.05L939.106 93.375 918.062 93.375ZM914.979 93.375 895.477 93.375 903.802 85.05C904.419 84.4333 905.19 84.125 905.96 84.125L914.979 84.125 914.979 93.375ZM951.208 93.375 944.81 93.375C943.963 93.375 943.192 93.0667 942.652 92.45L932.94 82.8146C931.783 81.6583 930.242 81.0417 928.546 81.0417L905.96 81.0417C904.342 81.0417 902.723 81.6583 901.567 82.8146L892.008 92.45C891.392 93.0667 891.083 93.8375 891.083 94.6854L891.083 102.625C891.083 106.017 893.858 108.792 897.25 108.792L898.021 108.792C898.021 104.09 901.798 100.312 906.5 100.312 911.202 100.312 914.979 104.09 914.979 108.792L935.021 108.792C935.021 104.09 938.798 100.312 943.5 100.312 948.202 100.312 951.979 104.09 951.979 108.792L955.833 108.792C957.529 108.792 958.917 107.404 958.917 105.708L958.917 101.083C958.917 96.8438 955.448 93.375 951.208 93.375Z"/></g></svg>