<svg width="54" height="54" xmlns="http://www.w3.org/2000/svg" xmlns:xlink="http://www.w3.org/1999/xlink" xml:space="preserve" overflow="hidden"><defs><clipPath id="clip0"><rect x="60" y="63" width="54" height="54"/></clipPath></defs><g clip-path="url(#clip0)" transform="translate(-60 -63)"><path d="M91.5 69.1875C91.5 71.6728 89.4853 73.6875 87 73.6875 84.5147 73.6875 82.5 71.6728 82.5 69.1875 82.5 66.7022 84.5147 64.6875 87 64.6875 89.4853 64.6875 91.5 66.7022 91.5 69.1875Z"/><path d="M99.2625 92.3625 96.1125 78.975C96 78.525 95.775 78.075 95.4375 77.7375 94.0875 76.6125 92.5125 75.825 90.7125 75.2625 89.475 75.0375 88.2375 74.8125 87 74.8125 85.7625 74.8125 84.525 75.0375 83.2875 75.375 81.4875 75.825 79.9125 76.725 78.5625 77.85 78.225 78.1875 78 78.6375 77.8875 79.0875L74.7375 92.475C74.7375 92.5875 74.625 92.8125 74.625 93.0375 74.625 94.275 75.6375 95.2875 76.875 95.2875 77.8875 95.2875 78.7875 94.5 79.0125 93.6L81.375 83.8125 81.375 115.312 85.875 115.312 85.875 95.0625 88.125 95.0625 88.125 115.312 92.625 115.312 92.625 83.7 94.9875 93.4875C95.2125 94.3875 96.1125 95.175 97.125 95.175 98.3625 95.175 99.375 94.1625 99.375 92.925 99.375 92.7 99.2625 92.475 99.2625 92.3625Z"/></g></svg>