<svg width="39" height="39" xmlns="http://www.w3.org/2000/svg" xmlns:xlink="http://www.w3.org/1999/xlink" xml:space="preserve" overflow="hidden"><defs><clipPath id="clip0"><rect x="771" y="379" width="39" height="39"/></clipPath></defs><g clip-path="url(#clip0)" transform="translate(-771 -379)"><path d="M802.931 386.721C803.256 386.733 803.51 387.005 803.5 387.33L803.5 404.113C803.492 404.424 803.242 404.674 802.931 404.682L797.975 404.682 797.975 409.11 793.844 404.886 793.605 404.642 778.069 404.642C777.761 404.649 777.507 404.406 777.5 404.098 777.5 404.09 777.5 404.082 777.5 404.074L777.5 387.29C777.508 386.979 777.758 386.729 778.069 386.721L802.931 386.721M802.931 385.909 778.069 385.909C777.309 385.917 776.695 386.53 776.688 387.29L776.688 404.073C776.681 404.829 777.289 405.447 778.046 405.454 778.054 405.454 778.061 405.454 778.069 405.454L793.263 405.454 798.787 411.101 798.787 405.494 802.931 405.494C803.691 405.486 804.305 404.873 804.312 404.113L804.312 387.331C804.322 386.557 803.705 385.922 802.931 385.909Z"/></g></svg>