<svg width="31" height="32" xmlns="http://www.w3.org/2000/svg" xmlns:xlink="http://www.w3.org/1999/xlink" xml:space="preserve" overflow="hidden"><defs><clipPath id="clip0"><rect x="55" y="600" width="31" height="32"/></clipPath></defs><g clip-path="url(#clip0)" transform="translate(-55 -600)"><path d="M27.6094 24.4125 23.5729 20.376C23.024 19.8271 22.2812 19.6333 21.5708 19.7625L20.15 18.3417C21.4094 16.7271 22.1521 14.6604 22.1521 12.4646 22.1521 7.13646 17.7927 2.77708 12.4646 2.77708 7.13646 2.77708 2.77708 7.13646 2.77708 12.4646 2.77708 17.7927 7.13646 22.1521 12.4646 22.1521 14.6604 22.1521 16.6948 21.4094 18.3417 20.15L19.7625 21.5708C19.6333 22.2812 19.8271 23.024 20.376 23.5729L24.4125 27.6094C24.8646 28.0615 25.4458 28.2875 26.0271 28.2875 26.6083 28.2875 27.1896 28.0615 27.6417 27.6094 28.4812 26.7052 28.4812 25.2844 27.6094 24.4125ZM12.4323 20.1823C8.16979 20.1823 4.68229 16.6948 4.68229 12.4323 4.68229 8.16979 8.16979 4.68229 12.4323 4.68229 16.6948 4.68229 20.1823 8.16979 20.1823 12.4323 20.1823 16.6948 16.6948 20.1823 12.4323 20.1823Z" transform="matrix(1 0 0 1.03226 55 600)"/></g></svg>