<svg width="40" height="40" xmlns="http://www.w3.org/2000/svg" xmlns:xlink="http://www.w3.org/1999/xlink" xml:space="preserve" overflow="hidden"><defs><clipPath id="clip0"><rect x="749" y="650" width="40" height="40"/></clipPath></defs><g clip-path="url(#clip0)" transform="translate(-749 -650)"><path d="M780 680.542 772.5 677.958 772.458 677.958 769.458 676.917 783.5 658.375 780 680.542ZM770.625 679.125 767.875 681.875 768.625 678.458 770.625 679.125 770.625 679.125ZM767.292 677C767.208 677.083 767.167 677.208 767.125 677.333L767 677.875 766.167 681.667 764.167 675.833 779.75 660.833 767.792 676.375 767.292 677ZM755.25 672.083 779.667 659.083 762.958 674.708 755.25 672.083ZM785.333 654.75C785.083 654.542 784.708 654.542 784.417 654.708L752.792 671.5C752.5 671.667 752.333 671.958 752.333 672.292 752.333 672.625 752.583 672.917 752.875 673L761.542 675.958 762.625 676.333 762.875 677.042 765.458 684.792 765.458 684.833 765.458 684.875C765.542 685.125 765.792 685.333 766.083 685.417 766.375 685.5 766.667 685.417 766.875 685.208L766.917 685.167 767.167 684.917 772.417 679.75 780.417 682.5C780.667 682.583 780.917 682.542 781.125 682.417 781.333 682.292 781.5 682.083 781.542 681.833L785.708 655.583C785.75 655.208 785.583 654.917 785.333 654.75Z"/></g></svg>